<?xml version="1.0" encoding="UTF-8"?>
<svg id="_2" xmlns="http://www.w3.org/2000/svg" version="1.1" viewBox="0 0 50 50">
  <!-- Generator: Adobe Illustrator 29.6.1, SVG Export Plug-In . SVG Version: 2.1.1 Build 9)  -->
  <defs>
    <style>
      .st0 {
        fill: #608abf;
      }
    </style>
  </defs>
  <path class="st0" d="M40.9,8.5H9.1c-3.4,0-6.1,2.8-6.1,6.2v20.5c0,3.4,2.7,6.2,6.1,6.2h31.8c3.4,0,6.1-2.8,6.1-6.2V14.7c0-3.4-2.7-6.2-6.1-6.2ZM18.3,30.8l-8.5,7.4c-.6.5-1.5.5-2-.2-.5-.6-.4-1.5.2-2.1l8.5-7.4c.6-.5,1.5-.5,2,.2.5.6.4,1.5-.2,2.1ZM25,27.9c-1.1,0-2.3-.4-3.1-1.2h0l-13.1-11.6c-.6-.5-.7-1.5-.1-2.1.5-.6,1.4-.7,2-.1l13.1,11.6c.3.3.7.4,1.2.4s.9-.2,1.2-.4h0l13.1-11.6c.6-.5,1.5-.5,2,.1s.5,1.5,0,2.1l-13.1,11.6c-.9.8-2,1.2-3.1,1.2ZM42.3,38c-.5.6-1.4.7-2,.2l-8.5-7.4c-.6-.5-.7-1.5-.2-2.1s1.4-.7,2-.2l8.5,7.4c.6.5.7,1.5.2,2.1Z"/>
</svg>