<?xml version="1.0" encoding="UTF-8"?>
<svg id="Capa_1" xmlns="http://www.w3.org/2000/svg" version="1.1" viewBox="0 0 50 50">
  <!-- Generator: Adobe Illustrator 29.6.1, SVG Export Plug-In . SVG Version: 2.1.1 Build 9)  -->
  <defs>
    <style>
      .st0 {
        fill: #608abf;
      }
    </style>
  </defs>
  <path class="st0" d="M34.2,5.3H15.8c-.8,0-1.5.7-1.5,1.5v36.2c0,.8.7,1.5,1.5,1.5h18.4c.8,0,1.5-.7,1.5-1.5V6.9c0-.8-.7-1.5-1.5-1.5h0ZM25,42.9c-.6,0-1.1-.3-1.3-.8-.1-.2-.2-.4-.2-.7s0-.6.3-.8c.3-.4.7-.7,1.3-.7s1.5.7,1.5,1.5-.7,1.5-1.5,1.5h0ZM34.6,38.8H15.4V10.1h19.2v28.6h0Z"/>
</svg>