<?xml version="1.0" encoding="UTF-8"?>
<svg id="Ebene_1" data-name="Ebene 1" xmlns="http://www.w3.org/2000/svg" version="1.1" viewBox="0 0 103.2 103.2">
  <defs>
    <style>
      .cls-1 {
        fill: #e55a15;
        stroke-width: 0px;
      }
    </style>
  </defs>
  <path class="cls-1" d="M65.2,72.8c.3-2,.9-4,.9-5.6.1-4.3-1.3-7.9-4.4-11-7.9-7.8-15.8-15.8-23.6-23.6-2.4-2.4-4.7-4.8-7.1-7.1-1-1-.9-1.7,0-2.7,6.5-6.5,13-13,19.5-19.5,1-1,1.5-.8,2.5,0,5.7,5.8,11.5,11.5,17.3,17.2.8.8,1.5,1.6,2.3,2.4.8.8.7,1.6,0,2.3-1.8,1.9-3.7,3.7-5.5,5.6-.8.8-1.5.4-2.2-.2-2.8-2.7-5.5-5.5-8.3-8.2-1.3-1.3-2.6-2.6-3.9-3.9-.6-.6-1.2-.6-1.8,0-1.4,1.5-2.8,2.9-4.2,4.3-1,1-.8,1.7,0,2.6,4.9,4.9,9.8,9.8,14.7,14.7,3.1,3.1,6.3,6,9.2,9.2,7.4,7.9,8.9,19.7,3.8,29.4-.8,1.5-.7,2.5.6,3.6,1.2,1.2,2.6,2.6,3.9,3.9.9.8,1.4.7,1.9-.2,3-4.6,4.9-9.6,5.5-15.1,1-10-1.6-18.9-8.1-26.6-1.4-1.6-2.9-3.1-4.4-4.6-1-1-1-1.8,0-2.7,1.7-1.7,3.4-3.4,5.1-5.1.9-.9,1.6-1,2.6-.1,9.9,9.2,15.7,20.4,15.9,34.1.3,14.4-5.5,26.1-15.8,35.8-1,1-1.8,1-2.8,0-3.7-3.8-7.4-7.5-11.2-11.3-1.5-1.5-1.7-1.5-3.2,0-3.8,3.8-7.6,7.6-11.3,11.4-.8.8-1.5,1.1-2.4.2-6.3-6.3-12.7-12.5-18.7-19.1-4.6-5-6.2-11.4-5.8-18.2,0-.5.2-1.9.4-2.4.3.3,16.1,16,23.5,23.4,1.7,1.8,1.7,1.7,3.4,0,1.2-1.2,2.4-2.4,3.7-3.6.9-.8.8-1.5,0-2.4-7-7-14-14-21.1-21-3.7-3.7-7.3-7.3-11-11-1.4-1.3-1.6-1.3-2.6.3-8.7,13.2-6.7,31.9,4.5,43,1,1,1.9,2,2.9,3,.8.8.9,1.5,0,2.3-1.8,1.8-3.6,3.6-5.4,5.5-.8.8-1.5.9-2.4,0-6.7-6.3-12-13.5-14.3-22.6-4.3-16.4-.8-31,10.5-43.7,1.1-1.3,2.5-2.4,3.6-3.7,1-1.1,1.9-1,2.9,0,5,5,39.9,40,40.5,40.7h0Z"/>
</svg>